:SAMPLES-PER-SECOND 24
:FULLY-SPECIFIED
:DEGREES
313
root  -13.6042 42.1083 33.7212 173.033 67.4494 172.498
RightUpLeg  0.250666 -19.344 -10.394
RightLeg  22.7599 16.4443 7.25992
RightFoot  6.89025 -2.53508 15.9348
RightToes  -1.46203e-006 3.27826e-006 1.63871e-007
Spine  2.21938 3.72692 2.74978
Spine1  16.5205 6.05006 -6.64074
HEad  -9.94966 45.9232 -20.4767
LeftShoulder1  2.16109 -3.43878 -24.9464
LeftArm  10.8184 19.3699 -38.2806
LeftForeArm  31.0239 -70.666 -30.5284
LeftHand  -0.208416 4.02382 17.0639
RightShoulder  3.64681 6.04112 32.3259
RightArm  14.8835 -23.3858 29.7829
RightForeArm  143.46 68.9099 151.374
RightHand  0.369021 -12.0156 -7.17512
LeftUpLeg  -5.06143 13.144 3.29165
LeftLeg  16.027 0.761456 -0.717196
LeftFoot  7.00499 1.06453 -6.83089
LeftToes  1.24767e-006 1.47042e-008 1.32732e-009
314
root  -13.0912 42.6525 34.4911 176.422 68.4297 176.196
RightUpLeg  -0.730383 -17.4644 -9.31921
RightLeg  23.5277 19.3246 8.79016
RightFoot  10.0271 -3.73777 20.0322
RightToes  -1.46203e-006 3.27826e-006 1.63871e-007
Spine  2.30739 3.80938 3.47485
Spine1  15.1543 5.8621 -6.38689
HEad  -9.18923 46.6379 -19.7179
LeftShoulder1  1.97811 -3.19403 -23.27
LeftArm  12.812 20.0623 -38.0333
LeftForeArm  42.9921 -75.3693 -43.2065
LeftHand  -0.108579 4.66643 15.6237
RightShoulder  3.54315 6.01901 31.3185
RightArm  14.9718 -25.9156 30.0989
RightForeArm  149.806 66.5403 155.131
RightHand  -0.0693147 -8.31791 1.24171
LeftUpLeg  -5.10101 12.6898 0.328069
LeftLeg  15.7049 -4.07006 -3.12927
LeftFoot  11.7661 3.02125 -14.9867
LeftToes  1.24767e-006 1.47042e-008 1.32732e-009
315
root  -12.5915 42.6508 35.2493 179.785 69.2979 -179.281
RightUpLeg  -0.606026 -15.4414 -9.55332
RightLeg  23.4194 18.6075 8.42807
RightFoot  7.97929 -3.39754 20.0976
RightToes  -1.46203e-006 3.27826e-006 1.63871e-007
Spine  2.81454 3.61885 4.46067
Spine1  14.9885 5.47718 -5.72435
HEad  -10.7897 47.3814 -20.3604
LeftShoulder1  1.77146 -2.92093 -21.1892
LeftArm  13.2967 18.9222 -37.741
LeftForeArm  63.5339 -78.6631 -61.8617
LeftHand  -0.0636402 4.94919 13.0916
RightShoulder  3.36576 5.87396 29.9821
RightArm  13.2872 -25.7477 31.8244
RightForeArm  147.405 64.58 156.923
RightHand  -0.121569 -7.14523 5.03603
LeftUpLeg  -3.50786 9.9731 -0.787092
LeftLeg  13.318 -9.17409 -5.89282
LeftFoot  14.4679 5.0156 -22.0463
LeftToes  1.24767e-006 1.47042e-008 1.32732e-009
316
root  -12.0837 42.1582 35.998 -174.892 70.1605 -173.299
RightUpLeg  -0.330646 -15.9357 -10.5352
RightLeg  19.7088 16.4407 6.33501
RightFoot  6.29435 -2.62833 17.1148
RightToes  -1.46203e-006 3.27826e-006 1.63871e-007
Spine  2.84251 3.38963 5.44524
Spine1  14.4074 4.93696 -4.54547
HEad  -12.5862 48.4412 -20.9771
LeftShoulder1  1.61649 -2.76063 -19.2987
LeftArm  12.9441 16.9492 -37.0289
LeftForeArm  81.6404 -79.8467 -79.1122
LeftHand  -0.0327927 5.22274 11.5397
RightShoulder  3.20288 5.69917 28.8702
RightArm  11.1759 -23.4941 33.3001
RightForeArm  141.192 63.9057 156.935
RightHand  -0.114325 -7.91005 2.96655
LeftUpLeg  -2.23263 8.16921 -1.11087
LeftLeg  11.6282 -9.81527 -6.15537
LeftFoot  12.4788 3.10253 -14.7256
LeftToes  1.24767e-006 1.47042e-008 1.32732e-009
317
root  -11.6376 41.1185 36.8392 -168.467 70.7905 -166.664
RightUpLeg  -0.569222 -14.6049 -11.5842
RightLeg  14.4787 8.51257 3.292
RightFoot  6.53318 -1.93027 12.5397
RightToes  -1.46203e-006 3.27826e-006 1.63871e-007
Spine  3.3695 3.06115 5.71843
Spine1  12.4971 4.09394 -2.83899
HEad  -14.9371 50.0916 -22.0821
LeftShoulder1  1.59754 -2.80347 -18.7841
LeftArm  11.9378 14.236 -34.6162
LeftForeArm  93.0842 -80.0018 -91.1311
LeftHand  -0.0148207 5.41617 11.1945
RightShoulder  3.14434 5.61832 28.5289
RightArm  8.83509 -19.6227 34.0553
RightForeArm  139.429 64.9035 155.776
RightHand  -0.0173515 -7.00437 -1.72373
LeftUpLeg  -2.91008 12.152 -0.796251
LeftLeg  14.9314 -9.11327 -4.02057
LeftFoot  3.09179 -0.167732 1.85144
LeftToes  1.24767e-006 1.47042e-008 1.32732e-009
318
root  -11.3589 39.7185 37.875 -166.926 70.7737 -164.78
RightUpLeg  -2.07743 -14.351 -14.151
RightLeg  14.7534 0.588708 0.429643
RightFoot  6.63184 -1.90903 12.2171
RightToes  -1.46203e-006 3.27826e-006 1.63871e-007
Spine  4.69915 2.69084 3.33724
Spine1  11.8032 2.9619 -0.524549
HEad  -20.3743 50.9266 -25.2616
LeftShoulder1  1.7125 -2.8728 -20.4246
LeftArm  9.96878 7.08924 -30.165
LeftForeArm  85.2141 -79.9188 -85.7602
LeftHand  -0.00590696 5.50208 11.9565
RightShoulder  3.25514 5.65589 29.624
RightArm  4.82909 -13.3552 34.1493
RightForeArm  140.49 67.8189 152.545
RightHand  -0.00189379 -5.99501 -5.36028
LeftUpLeg  -6.17667 12.3145 -0.216537
LeftLeg  23.2827 -5.45884 -2.17479
LeftFoot  -8.75832 -0.144605 8.5041
LeftToes  1.24767e-006 1.47042e-008 1.32732e-009
319
root  -11.1447 38.327 39.0932 -170.809 69.4297 -168.554
RightUpLeg  -4.40441 -17.2063 -18.0044
RightLeg  21.8182 1.20915 0.320476
RightFoot  1.87963 -2.17419 18.7189
RightToes  -1.46203e-006 3.27826e-006 1.63871e-007
Spine  5.50092 2.41151 -0.510293
Spine1  13.3499 1.98935 0.979183
HEad  -26.6562 49.4272 -28.2026
LeftShoulder1  1.86183 -3.07356 -21.971
LeftArm  8.04263 -4.19041 -27.3861
LeftForeArm  48.4675 -76.6741 -49.0052
LeftHand  0.0925647 6.28717 14.1238
RightShoulder  3.48631 5.82198 31.4977
RightArm  0.132601 -7.13846 34.8272
RightForeArm  137.825 72.9428 143.47
RightHand  0.148129 -7.55421 -9.47649
LeftUpLeg  -11.3652 8.19167 -0.153381
LeftLeg  34.0122 -2.51677 -1.45749
LeftFoot  -16.8919 0.414347 6.44404
LeftToes  1.24767e-006 1.47042e-008 1.32732e-009
